P2
# General Robotics Mask 2
5 5
255
 -1  -1   0   1   1
 -1  -1   0   1   1
 -1  -1   0   1   1
 -1  -1   0   1   1
 -1  -1   0   1   1
