P2
# General Robotics Mask 3
9  9
255
 -1  -1  -1  -1  0   1   1   1   1
 -1  -1  -1  -1  0   1   1   1   1
 -1  -1  -1  -1  0   1   1   1   1
 -1  -1  -1  -1  0   1   1   1   1
 -1  -1  -1  -1  0   1   1   1   1
 -1  -1  -1  -1  0   1   1   1   1
 -1  -1  -1  -1  0   1   1   1   1
 -1  -1  -1  -1  0   1   1   1   1
 -1  -1  -1  -1  0   1   1   1   1
