P2
# General Robotics Mask 1
3 3
255
 -1   0   1
 -1   0   1
 -1   0   1
