P2
60 90 255
8  9  9  2  2  6  3  7  4  1  7  8  3  9  4  9  7  7  1  1  0  5  4  0  9  5  4  2  2  6  9  2  0  1  8  0  5  4  4  5  5  7  6  7  4  7  9  2  7  7  1  2  0  3  3  5  5  6  8  6  
3  10  8  8  3  5  8  8  8  4  8  1  9  4  5  2  8  8  7  4  4  8  6  4  3  1  9  8  0  0  4  5  9  2  8  7  7  1  8  6  2  7  9  4  7  7  9  4  9  4  7  9  8  7  3  0  0  5  6  3  
1  0  9  4  9  5  2  7  2  4  3  8  8  0  4  9  8  7  3  7  9  8  8  7  1  1  3  1  2  9  7  1  1  6  7  7  3  8  7  1  1  3  6  0  2  0  6  2  0  1  0  7  5  0  1  6  5  9  4  1  
1  0  4  2  6  2  5  0  8  5  0  3  6  9  1  9  3  1  7  0  3  4  9  3  5  7  1  4  5  3  3  4  5  1  8  7  8  6  3  3  6  5  4  3  3  0  4  6  4  5  9  8  0  1  3  7  6  6  9  8  
1  4  8  9  8  6  8  9  3  4  2  7  1  8  0  5  4  1  8  3  9  6  0  3  1  8  5  4  8  3  3  8  5  0  4  4  5  3  6  1  0  0  6  5  0  6  8  2  3  2  6  7  4  0  9  9  2  1  1  6  
1  0  4  4  4  9  6  9  4  5  0  5  8  4  8  0  8  2  5  4  5  0  5  3  9  5  8  3  6  8  2  8  6  2  7  3  5  4  1  6  1  1  7  9  9  7  1  1  4  8  5  1  3  8  8  1  9  2  3  8  
2  3  9  7  5  2  2  7  7  8  8  1  1  5  3  1  0  1  4  5  0  4  9  9  0  6  1  3  0  4  5  4  1  3  4  3  4  9  7  4  2  5  6  9  1  1  2  1  6  7  4  4  6  2  3  9  8  0  6  3  
7  0  0  0  0  6  1  6  2  8  7  9  9  6  2  5  3  6  4  8  6  1  4  8  3  0  0  5  6  6  0  9  8  4  3  2  8  8  9  6  4  9  1  8  9  8  7  0  6  7  4  7  0  1  1  2  2  4  8  9  
1  1  9  4  3  8  4  9  7  4  1  3  9  5  6  4  7  0  6  0  0  1  2  9  6  1  8  4  9  6  9  0  1  5  1  7  9  6  1  2  9  3  3  5  0  8  5  9  0  4  1  6  1  3  2  8  5  2  4  0  
7  1  6  7  8  3  2  2  3  1  4  6  5  0  3  2  8  3  0  9  2  7  0  9  5  8  6  2  5  1  5  2  3  0  4  7  0  4  1  3  3  7  6  1  8  7  0  8  6  6  9  4  4  0  1  2  9  3  0  3  
8  2  1  1  9  4  9  1  6  1  4  8  9  3  6  1  7  8  4  3  0  7  2  2  5  2  8  9  6  3  9  4  6  6  0  4  0  5  7  8  6  9  0  7  0  1  2  2  4  5  3  4  0  1  3  3  4  4  5  8  
2  1  0  2  9  6  0  6  5  4  8  7  5  2  6  4  0  2  8  5  2  9  9  1  4  7  1  3  6  3  4  1  8  1  8  3  8  4  7  0  4  3  8  2  9  5  3  7  4  7  1  5  9  5  3  0  7  6  3  2  
0  3  1  5  4  4  0  2  6  5  4  9  9  6  2  8  5  2  6  0  8  8  0  2  3  0  6  9  0  0  1  9  3  0  0  1  6  3  7  6  1  1  9  8  7  8  0  9  8  0  9  4  2  6  3  8  7  9  9  6  
4  2  9  2  7  5  5  9  0  8  4  0  5  5  3  4  8  0  1  5  4  9  1  6  6  1  2  0  0  4  0  3  8  8  6  8  6  2  2  5  5  4  2  7  7  6  2  8  0  6  5  5  6  0  9  1  9  2  8  5  
3  0  2  0  7  6  2  2  1  4  8  1  5  8  6  2  9  8  5  8  6  6  9  3  2  0  0  0  5  2  4  7  6  0  0  5  0  9  2  4  1  8  5  3  0  6  6  7  3  7  1  8  8  6  5  9  1  8  6  6  
4  3  3  5  5  1  9  7  0  7  3  4  3  8  9  7  9  4  4  9  1  4  7  0  1  3  3  4  2  4  5  4  8  0  9  6  4  0  8  1  8  0  2  1  7  7  4  4  6  8  4  6  9  9  1  7  8  1  5  6  
3  1  1  5  5  8  7  9  4  2  8  5  6  9  7  0  4  2  4  8  3  8  7  1  6  3  9  9  1  3  5  1  5  7  7  2  2  6  6  0  3  5  6  5  3  7  7  6  5  1  6  9  7  2  2  1  5  2  7  2  
5  3  8  9  6  4  6  7  5  9  5  3  2  3  8  8  8  0  0  4  8  2  0  2  0  5  4  2  0  9  9  4  0  2  0  6  8  3  7  8  6  6  7  3  2  7  8  6  9  4  1  3  8  0  7  6  3  0  4  0  
8  0  7  5  1  5  6  3  4  6  8  9  3  0  2  9  2  8  0  8  0  5  4  4  2  4  0  5  5  6  9  1  7  9  8  2  9  2  7  6  0  0  8  9  0  8  3  6  3  3  8  9  3  0  6  4  8  4  4  2  
3  2  7  3  4  2  9  3  3  4  2  1  7  4  7  5  7  5  6  8  1  8  0  3  2  9  0  3  8  8  0  5  9  0  4  9  9  0  4  4  3  1  0  8  3  3  0  9  9  6  2  2  4  5  6  6  1  9  2  2  
2  4  3  4  6  5  9  3  5  8  5  2  4  3  6  7  6  6  6  0  0  2  7  3  4  6  5  1  5  0  6  2  0  0  6  5  9  5  7  2  6  9  0  6  0  6  5  5  1  0  2  6  4  7  1  9  1  2  9  7  
4  8  0  9  5  8  9  8  1  1  6  8  8  3  3  7  9  2  3  5  4  3  6  4  9  1  8  7  5  7  1  8  7  5  6  1  9  9  1  8  4  8  1  3  0  9  8  7  1  4  5  1  6  9  3  7  1  5  9  4  
7  4  2  1  6  7  6  0  4  0  7  3  7  2  9  2  0  3  8  8  8  6  8  9  9  6  2  3  1  5  9  1  2  1  2  8  2  1  5  7  6  5  4  0  8  3  3  9  8  0  5  2  8  3  8  3  4  5  9  0  
0  1  7  8  9  3  6  3  9  1  0  4  6  6  3  0  2  4  0  4  0  5  5  1  9  2  6  8  8  3  5  2  9  7  5  0  3  8  1  5  2  1  8  0  2  1  5  8  2  5  0  3  2  3  6  1  4  8  6  7  
7  9  4  8  8  8  5  5  8  2  5  9  7  1  2  9  6  1  1  9  1  7  2  7  9  5  1  4  8  9  0  8  5  1  1  1  2  5  2  1  1  5  0  1  4  6  1  3  9  8  7  1  8  9  7  6  8  6  9  0  
3  8  4  1  0  6  9  1  6  8  5  5  1  7  9  9  0  5  7  1  9  8  0  5  6  0  2  3  8  6  7  4  2  0  1  1  6  3  0  4  2  7  5  6  9  0  8  1  8  6  8  8  5  8  5  3  7  4  4  7  
0  5  8  89  186  198  242  54  16  190  234  142  34  13  244  16  151  135  116  100  234  27  27  244  152  194  146  32  229  30  73  52  40  82  157  23  115  22  186  103  104  26  155  79  76  196  219  11  8  4  2  1  5  4  9  3  7  2  4  4  
3  6  3  160  207  125  163  216  11  24  169  65  158  46  194  114  254  240  161  203  242  206  176  118  112  217  80  166  167  141  70  95  108  64  254  58  50  190  35  236  160  86  197  107  228  47  53  50  8  6  3  4  7  3  5  1  1  7  3  9  
7  3  1  189  40  166  93  97  201  126  22  127  148  209  64  234  137  222  139  119  151  176  131  217  123  42  204  160  114  106  202  154  106  253  172  239  35  192  41  154  175  45  198  154  135  79  125  89  1  6  8  0  1  4  1  0  5  6  8  7  
5  2  1  5  1  1  7  8  8  0  75  25  232  151  105  241  210  253  222  194  6  8  6  7  7  9  4  2  3  3  5  8  3  3  0  4  8  6  180  206  151  79  78  16  152  248  21  71  7  4  2  6  0  0  5  9  9  4  7  7  
4  8  3  2  5  6  1  0  9  5  4  176  105  209  125  43  140  29  141  5  1  9  7  0  5  6  9  9  1  4  1  9  8  0  2  6  9  6  3  8  1  8  20  100  229  241  74  185  2  3  0  2  4  6  5  8  9  6  7  9  
1  5  6  1  0  0  9  9  5  9  3  219  23  38  132  51  230  29  230  4  8  8  1  8  3  1  9  4  0  3  4  9  5  2  9  2  7  6  1  7  9  3  0  103  49  57  27  46  155  4  2  3  9  8  1  9  6  3  0  4  
2  4  1  4  7  3  6  3  6  7  0  19  109  178  119  211  21  232  154  2  0  2  1  8  9  7  7  0  5  1  3  0  9  2  4  8  2  6  1  2  0  0  4  6  219  94  11  124  56  1  5  4  1  1  5  7  8  1  3  0  
0  5  3  9  3  4  2  3  8  4  1  82  159  56  240  203  214  49  53  5  6  3  5  5  6  6  7  3  8  1  6  8  5  5  0  4  9  4  4  6  8  6  9  6  7  120  151  210  162  7  7  7  1  2  7  0  3  7  5  0  
5  4  2  6  5  6  6  5  0  6  5  81  190  16  148  86  222  211  33  4  3  7  6  0  1  9  0  8  5  7  8  7  9  0  9  2  5  8  3  1  4  1  0  2  4  7  22  97  50  9  4  7  9  1  5  5  4  3  6  3  
8  0  0  0  1  7  6  5  2  1  1  95  137  220  213  174  206  114  136  4  1  2  6  9  7  6  2  9  8  1  3  5  6  6  4  5  8  1  5  1  3  1  3  4  6  7  44  252  142  4  9  2  7  0  3  2  8  0  3  5  
2  4  5  4  2  9  4  9  4  0  3  102  123  87  27  254  125  122  34  8  4  6  1  6  9  1  5  4  7  3  6  4  7  2  8  9  1  2  7  1  6  5  4  4  2  5  1  239  49  3  7  6  4  9  6  3  8  2  2  9  
9  3  0  0  6  4  9  1  1  0  1  203  152  234  70  203  78  15  243  8  1  7  3  0  7  6  1  7  2  7  9  4  9  7  5  4  4  3  4  8  0  0  1  1  6  5  5  212  191  0  4  5  8  8  3  0  3  0  6  4  
7  7  5  3  4  6  3  6  0  6  6  166  47  171  77  222  209  118  198  0  5  8  2  3  8  3  7  2  4  5  0  3  4  0  7  2  3  5  8  4  6  6  3  1  2  6  1  38  248  2  3  1  1  7  0  3  2  5  1  0  
4  4  2  6  2  4  7  5  1  0  7  221  214  30  73  191  87  254  90  1  6  7  4  0  1  8  5  0  5  2  1  9  9  2  8  3  2  7  7  2  7  8  1  6  2  7  5  148  241  9  8  7  4  9  4  6  6  9  7  9  
5  1  4  0  3  1  7  9  6  2  3  83  253  147  166  12  87  231  41  8  6  6  9  9  8  7  5  8  8  4  5  5  4  3  1  6  5  6  0  5  6  5  2  1  8  1  0  34  168  44  1  4  5  3  5  8  4  4  1  0  
2  3  5  2  4  8  5  5  2  5  9  211  56  64  57  68  32  113  45  9  2  2  1  2  1  4  2  6  5  5  4  8  8  2  2  1  1  7  4  3  2  7  1  0  2  4  0  7  250  213  5  0  2  4  0  0  6  8  8  1  
0  7  1  9  2  4  0  6  6  1  6  111  133  233  10  129  238  240  149  6  9  2  9  7  4  7  0  8  1  3  6  1  6  0  2  8  5  1  8  5  8  4  5  7  0  6  3  2  243  207  5  4  4  2  3  9  5  4  8  9  
7  5  8  9  4  3  5  7  8  6  0  190  56  232  231  236  55  69  29  2  7  6  0  8  4  8  2  2  0  9  1  2  4  8  170  156  0  2  2  8  8  1  6  3  7  8  5  8  210  26  7  8  0  2  5  9  8  2  4  1  
8  5  2  3  2  5  2  7  9  1  7  254  114  41  181  36  13  202  47  3  0  6  2  1  8  7  9  0  6  6  5  4  4  1  12  27  3  5  5  6  2  9  3  8  6  4  9  1  19  115  3  1  2  0  9  7  1  1  5  0  
4  8  9  9  3  0  5  2  8  4  7  160  22  117  162  165  128  87  177  9  6  0  9  8  4  2  7  0  2  5  8  9  7  8  94  245  3  1  2  1  4  6  2  7  5  6  6  1  2  0  8  9  9  2  7  7  9  3  3  9  
8  1  9  0  0  5  1  8  6  5  4  158  13  83  40  179  153  23  44  9  6  2  0  0  7  8  9  7  6  1  0  6  1  2  161  149  4  7  7  8  6  1  4  5  2  0  1  1  7  8  1  5  3  4  9  4  1  8  9  4  
6  8  5  3  2  9  6  1  3  2  3  108  66  34  214  100  73  33  158  8  2  2  6  5  5  5  5  9  7  1  4  2  4  6  184  177  1  7  5  2  1  3  1  8  6  8  4  8  2  4  9  8  4  3  2  2  3  6  5  1  
7  8  8  3  0  8  3  3  0  1  7  191  183  202  139  127  217  210  11  3  3  2  9  2  3  6  4  7  1  9  8  0  8  2  252  22  4  0  9  3  7  6  9  2  1  6  8  9  2  1  6  7  5  0  5  6  6  3  9  3  
9  5  9  9  9  5  1  5  5  8  4  42  48  206  55  134  104  214  175  3  0  0  1  6  0  2  2  3  6  6  7  7  1  124  241  230  7  1  7  9  0  7  4  2  1  1  2  5  3  8  2  1  0  2  9  6  5  4  7  3  
7  7  9  6  5  3  7  2  2  1  4  252  88  109  24  181  105  98  38  1  7  2  6  0  4  5  0  0  7  6  3  6  4  152  69  184  6  0  4  0  1  7  5  6  0  8  7  5  6  3  4  7  0  1  1  1  7  0  6  2  
4  8  6  8  3  2  5  6  6  9  4  15  177  58  181  89  228  83  146  1  4  4  3  8  2  8  6  3  7  6  9  6  172  189  107  142  8  9  2  4  8  0  0  9  0  1  4  4  2  7  7  5  5  5  3  5  9  4  9  8  
1  3  1  9  8  0  0  8  2  3  6  114  139  105  17  28  168  228  206  3  0  6  5  9  1  9  8  3  6  9  223  139  78  102  75  146  9  6  7  0  8  3  3  2  7  3  5  6  3  4  8  8  9  6  7  3  9  6  8  0  
2  5  5  6  9  0  9  3  1  8  6  17  24  63  195  40  70  142  248  177  56  114  245  59  84  134  240  159  92  105  150  161  60  189  131  157  6  0  9  3  7  2  8  1  6  7  3  1  9  0  8  7  6  0  4  9  6  1  4  6  
6  0  9  9  2  2  2  5  2  9  6  36  37  176  42  154  16  161  229  199  173  80  61  239  17  12  224  125  151  22  147  81  89  107  202  120  7  3  3  9  1  1  4  5  0  2  6  3  0  7  3  0  8  9  8  9  7  5  9  0  
6  3  2  6  1  7  4  8  1  3  4  101  110  37  247  62  51  79  55  101  13  88  22  13  216  101  70  107  225  56  126  194  112  52  228  76  0  2  1  6  8  3  9  3  6  7  1  5  2  5  7  6  6  0  8  5  7  8  8  3  
0  4  1  5  0  3  6  4  9  0  6  193  172  169  90  158  93  225  170  1  1  6  6  3  5  9  3  1  8  5  27  155  66  161  235  85  2  6  5  2  2  1  4  7  8  7  5  2  4  6  3  3  3  5  7  0  3  5  7  3  
1  6  4  3  8  4  8  2  1  7  1  57  214  110  243  221  180  56  215  7  4  7  2  5  3  7  5  7  5  9  0  9  67  56  134  177  8  7  8  9  2  3  5  3  7  6  4  9  5  3  5  5  3  3  3  5  3  9  8  6  
9  2  6  7  9  8  4  5  6  8  6  204  203  124  227  174  57  156  53  9  8  4  7  0  9  6  8  7  1  1  9  2  7  199  221  189  9  9  8  3  8  9  3  7  6  6  3  3  6  4  5  1  4  6  2  4  3  3  7  7  
4  4  6  6  3  1  3  7  7  5  2  61  135  120  51  223  116  54  194  4  2  7  9  6  5  6  4  9  3  6  8  2  3  189  147  150  6  4  9  7  2  4  7  0  1  1  7  1  8  6  0  4  2  1  6  3  6  5  2  0  
9  9  2  8  5  9  1  0  3  5  7  106  137  139  180  186  199  91  172  0  2  3  2  6  6  3  8  2  0  9  7  1  3  9  195  170  9  5  4  9  0  9  0  9  9  8  2  8  6  2  2  9  5  5  5  3  5  9  8  3  
0  5  3  5  0  0  2  4  6  5  5  190  125  168  198  51  235  239  134  4  7  3  6  4  1  9  8  5  5  9  2  3  7  0  111  141  7  5  4  8  9  7  4  9  5  8  2  2  3  4  9  3  3  7  0  8  7  0  8  6  
9  2  5  5  7  2  0  3  2  0  4  114  181  241  131  126  122  210  108  5  1  8  9  2  8  0  7  2  1  5  9  9  1  5  237  15  5  9  8  9  5  4  4  8  4  0  2  5  9  2  4  6  0  0  9  6  1  9  3  3  
2  1  1  9  2  6  6  8  5  9  9  208  214  142  146  202  225  206  148  3  6  5  0  1  9  8  6  3  4  5  8  0  7  3  86  184  3  9  7  2  1  9  8  3  6  4  1  6  2  9  9  1  1  0  3  8  8  1  2  0  
6  0  1  5  5  5  4  7  1  3  6  166  206  113  226  100  122  211  70  5  9  4  2  9  6  2  0  8  8  3  1  3  9  7  106  62  4  2  8  3  4  3  4  1  1  6  2  2  6  1  3  0  9  6  2  2  2  9  3  7  
6  6  1  4  1  2  9  8  0  9  0  63  170  82  56  75  184  55  156  9  8  7  7  2  7  2  9  2  9  7  1  3  1  6  226  84  6  6  0  1  5  7  3  0  3  3  1  2  4  4  2  8  2  4  4  9  7  7  1  6  
1  6  2  3  0  0  2  4  0  5  9  235  240  173  247  27  236  79  78  6  9  6  3  0  8  6  4  1  9  1  1  8  4  4  2  5  3  8  2  4  9  4  2  6  8  3  9  0  4  3  8  0  1  1  4  4  2  9  0  2  
2  2  0  8  5  9  4  9  2  6  8  28  190  103  52  64  165  152  179  2  7  4  6  6  5  1  7  8  8  7  1  4  1  7  4  1  2  8  0  7  9  2  4  0  9  8  1  8  2  3  6  4  3  8  1  9  5  4  8  3  
9  7  8  4  9  6  8  9  8  3  1  203  108  91  117  123  80  139  98  0  1  7  1  9  9  9  4  0  4  7  2  9  4  9  1  9  0  3  1  7  9  4  3  4  4  1  9  6  3  3  2  4  0  6  9  6  6  1  5  2  
5  7  4  8  6  5  5  7  4  5  1  162  26  116  141  100  49  142  41  3  5  7  8  6  2  8  3  5  1  2  2  4  5  8  0  8  5  3  1  6  8  0  0  4  9  7  5  9  4  4  9  1  9  4  6  0  3  3  5  0  
8  9  0  2  5  8  8  5  2  0  9  109  172  230  159  235  20  195  32  7  9  5  3  6  6  1  8  1  1  8  3  0  1  4  1  0  7  4  3  2  2  8  7  9  0  4  9  6  0  8  1  4  3  4  8  8  5  1  0  8  
9  6  1  7  1  6  0  7  0  8  9  206  213  44  121  88  80  123  236  9  1  7  9  0  6  4  2  7  5  9  5  9  8  9  6  5  8  2  5  2  5  4  4  7  9  8  8  0  9  6  8  1  5  1  9  5  8  4  4  6  
3  1  3  6  1  4  4  5  6  3  2  186  222  93  235  32  77  58  247  1  5  2  5  1  7  5  4  1  6  1  7  2  6  7  3  7  2  9  1  9  9  9  7  0  5  9  3  3  6  1  7  4  8  2  8  6  5  0  3  5  
3  3  7  9  0  2  0  7  3  1  2  225  113  229  126  192  179  230  128  5  4  5  9  3  9  8  8  0  6  9  9  6  1  4  7  4  2  5  7  8  0  5  5  9  6  7  0  8  5  9  7  6  1  3  2  4  3  4  1  7  
1  6  2  3  2  5  1  1  7  6  9  175  138  222  228  17  39  254  253  4  1  0  2  0  1  3  1  3  4  0  9  4  7  4  9  4  7  8  7  7  3  0  0  5  5  0  9  2  1  9  8  6  6  7  3  7  6  1  9  1  
4  7  4  0  2  0  0  7  8  9  9  217  204  251  252  72  240  79  181  8  2  8  3  4  2  6  6  4  0  5  7  5  0  5  5  9  0  3  6  5  3  9  5  3  6  5  3  0  6  3  5  6  3  7  6  0  5  6  6  7  
6  0  4  4  9  0  1  5  2  8  1  225  137  84  159  149  235  178  181  1  5  0  1  7  3  3  4  5  5  2  2  9  4  2  4  0  8  0  8  4  4  4  7  5  9  4  5  5  3  3  8  0  7  8  5  8  3  2  6  2  
9  2  4  7  4  8  7  5  6  3  5  134  80  61  56  110  91  168  220  0  5  7  3  4  0  3  1  8  7  3  3  6  7  5  0  3  9  7  5  0  6  5  7  0  2  2  2  8  7  6  9  5  3  2  2  3  6  3  7  3  
8  0  7  4  9  7  6  9  0  5  6  202  214  207  44  245  140  36  126  2  6  4  7  9  8  1  6  3  6  2  0  0  0  0  2  8  5  6  1  0  9  2  3  9  4  2  3  7  2  6  0  2  4  2  0  3  4  8  2  4  
4  8  7  9  1  6  2  8  5  8  125  168  137  22  69  22  52  242  31  213  101  3  4  6  2  1  4  2  8  9  9  8  3  5  1  8  5  7  2  8  1  1  8  9  7  2  2  6  1  0  8  8  9  1  4  4  8  9  9  3  
8  4  8  233  210  85  226  16  57  113  93  176  76  47  228  48  51  206  171  168  142  152  149  148  172  179  187  15  10  4  4  3  0  8  9  7  1  1  1  2  2  2  4  1  7  2  9  2  6  3  9  2  3  6  2  2  2  5  2  8  
3  9  6  230  171  86  54  146  51  82  229  143  236  212  101  120  58  198  98  239  237  23  31  109  201  179  246  29  122  5  3  6  8  2  1  5  4  0  7  1  3  7  5  7  7  8  4  3  3  3  8  0  4  7  1  3  5  5  6  8  
7  2  9  82  204  239  244  137  219  92  155  212  110  210  155  156  140  94  254  48  112  58  108  175  218  76  184  80  148  0  8  0  2  2  9  1  9  2  1  8  5  1  9  1  2  3  3  0  8  2  4  5  3  2  5  0  9  9  4  1  
7  1  6  6  7  8  1  2  9  6  3  3  2  9  5  1  1  5  0  6  5  9  3  8  5  6  2  0  9  1  7  0  8  2  6  3  3  4  2  9  8  4  8  0  7  2  0  9  3  7  3  9  9  1  0  9  0  8  3  8  
2  7  5  7  3  3  3  0  0  8  2  6  5  0  3  6  6  5  3  6  3  2  2  1  8  7  8  1  4  9  5  8  2  3  4  2  2  0  3  0  1  8  6  9  6  2  0  5  0  7  4  9  4  6  9  6  5  4  5  5  
6  9  1  7  2  6  2  2  2  8  4  7  1  4  8  7  9  3  6  1  2  6  4  7  8  4  2  9  4  9  2  5  2  5  8  9  7  0  6  6  1  7  8  1  7  5  6  9  7  4  6  2  6  8  5  9  8  0  6  6  
6  3  7  9  0  4  7  9  0  4  3  6  4  3  2  7  9  9  5  3  9  0  9  8  1  3  5  5  0  4  9  0  4  8  3  4  5  6  2  6  3  6  3  5  3  6  8  0  2  0  7  3  4  7  6  3  0  7  7  0  
5  6  2  4  3  0  7  4  3  9  0  1  2  2  0  1  0  4  3  4  6  9  8  4  2  8  8  5  2  2  7  7  6  8  0  9  3  8  8  5  3  7  9  6  1  5  3  2  1  0  4  9  6  3  1  5  2  1  5  3  
7  9  0  9  2  2  5  7  2  4  0  4  3  5  9  8  2  3  6  4  3  2  6  4  2  7  7  1  6  4  1  7  7  4  3  5  6  3  3  9  9  6  6  0  8  9  4  2  1  8  5  6  3  5  5  8  7  1  6  2  
4  6  3  3  7  6  5  4  3  2  5  4  5  1  0  8  5  9  0  1  9  1  9  6  2  7  5  5  0  4  7  0  7  0  1  0  8  7  6  1  6  9  4  3  0  4  3  9  0  5  9  1  3  2  6  3  8  4  1  1  
